<?xml version="1.0" encoding="UTF-8" standalone="no"?>
<!-- Generator: Adobe Illustrator 16.0.0, SVG Export Plug-In . SVG Version: 6.00 Build 0)  -->

<svg
   xmlns:dc="http://purl.org/dc/elements/1.1/"
   xmlns:cc="http://creativecommons.org/ns#"
   xmlns:rdf="http://www.w3.org/1999/02/22-rdf-syntax-ns#"
   xmlns:svg="http://www.w3.org/2000/svg"
   xmlns="http://www.w3.org/2000/svg"
   xmlns:sodipodi="http://sodipodi.sourceforge.net/DTD/sodipodi-0.dtd"
   xmlns:inkscape="http://www.inkscape.org/namespaces/inkscape"
   version="1.1"
   id="Capa_1"
   x="0px"
   y="0px"
   width="400px"
   height="400px"
   viewBox="0 0 400 400"
   enable-background="new 0 0 400 400"
   xml:space="preserve"
   inkscape:version="0.48.4 r9939"
   sodipodi:docname="icono-google-plus.svg"><metadata
     id="metadata9"><rdf:RDF><cc:Work
         rdf:about=""><dc:format>image/svg+xml</dc:format><dc:type
           rdf:resource="http://purl.org/dc/dcmitype/StillImage" /><dc:title></dc:title></cc:Work></rdf:RDF></metadata><defs
     id="defs7" /><sodipodi:namedview
     pagecolor="#ffffff"
     bordercolor="#666666"
     borderopacity="1"
     objecttolerance="10"
     gridtolerance="10"
     guidetolerance="10"
     inkscape:pageopacity="0"
     inkscape:pageshadow="2"
     inkscape:window-width="1366"
     inkscape:window-height="713"
     id="namedview5"
     showgrid="false"
     inkscape:zoom="1.18"
     inkscape:cx="135.01871"
     inkscape:cy="199.13719"
     inkscape:window-x="0"
     inkscape:window-y="30"
     inkscape:window-maximized="1"
     inkscape:current-layer="Capa_1" /><path
     fill="#0098CC"
     d="M200,0C89.543,0,0,89.543,0,200c0,110.453,89.543,200,200,200c110.453,0,200-89.547,200-200  C400,89.543,310.453,0,200,0z M154.768,279.268c-43.884,0-79.268-35.495-79.268-79.268s35.384-79.268,79.268-79.268  c21.398,0,39.272,7.895,53.016,20.784l-21.519,20.673c-5.84-5.599-16.172-12.164-31.497-12.164  c-27.108,0-49.119,22.374-49.119,49.975c0,27.711,22.011,50.086,49.119,50.086c31.255,0,43.048-22.606,44.87-34.276h-44.87v-27.117  h74.665c0.726,3.896,1.441,7.904,1.441,13.042C230.874,247.166,200.484,279.268,154.768,279.268z M324.5,211.419h-22.616v22.616  h-22.616v-22.616h-22.616v-22.727h22.616v-22.616h22.616v22.616H324.5V211.419z"
     id="path3" /><path
     style="fill:#ff0000"
     d="M 178.23905,398.4086 C 140.66169,394.21755 103.90858,378.79559 74.425489,354.84742 65.68074,347.74434 51.745417,333.85685 44.660753,325.18484 36.875086,315.65477 26.808969,299.76825 21.034009,287.8967 6.8312546,258.7002 0.81534391,232.64817 0.77966984,200.18484 0.74429687,167.99552 7.1412953,140.25998 21.095173,112.10265 31.581044,90.943373 42.980577,75.086314 59.522526,58.649164 75.666986,42.606986 91.408387,31.312461 111.46821,21.377911 130.78863,11.809546 149.6982,5.8423201 170.9831,2.5970052 c 15.44274,-2.3545607 41.92736,-2.52004088 55.98476,-0.3498019 35.49676,5.4801355 65.69092,18.0137087 93.56799,38.8400017 10.85489,8.109424 30.52734,27.813688 38.43431,38.496459 22.72396,30.701386 35.97893,64.622316 39.67528,101.533376 1.23964,12.37888 0.57232,37.31611 -1.30398,48.72882 -7.25284,44.11574 -26.1419,81.08391 -57.15986,111.8687 -31.48609,31.24942 -72.86639,51.2191 -116.77775,56.35569 -11.52306,1.34793 -34.56517,1.52055 -45.1648,0.33835 l 0,0 z m -1.95911,-121.54807 c 4.41195,-1.11917 10.03826,-2.95808 12.50293,-4.08644 20.83651,-9.53927 35.52294,-28.36622 40.41686,-51.8115 1.6484,-7.89699 2.26207,-23.61838 1.15011,-29.46419 l -0.6045,-3.17797 -37.61755,0 -37.61756,0 0,13.98305 0,13.98305 22.0339,0 c 25.54628,0 24.11192,-0.68453 19.31536,9.21805 -3.36951,6.95638 -12.07173,15.88111 -18.5423,19.0164 -9.89513,4.79463 -23.72447,6.21867 -34.28145,3.53004 -11.68085,-2.97487 -23.87189,-11.99105 -29.63512,-21.91739 -6.43611,-11.0853 -8.77656,-25.51793 -6.02794,-37.17193 5.28839,-22.42247 25.09105,-38.34353 47.56128,-38.23861 11.28372,0.0527 19.7406,2.92995 28.38983,9.659 l 2.96611,2.3076 11.01694,-10.51361 11.01695,-10.51362 -4.12301,-3.70952 c -5.56656,-5.0083 -16.47576,-11.07326 -24.51684,-13.63013 -19.77146,-6.28685 -42.13706,-4.66734 -60.16381,4.3565 -12.03138,6.02269 -23.758972,16.26951 -30.917802,27.014 -14.939913,22.42293 -17.535682,51.69487 -6.754135,76.165 11.307355,25.66351 34.641827,43.20511 62.704147,47.13755 8.18184,1.14656 22.62091,0.17478 31.7276,-2.13533 z m 125.68792,-53.79433 0,-11.01695 11.44068,0 11.44068,0 0,-11.86441 0,-11.86441 -11.44068,0 -11.44068,0 0,-11.44068 0,-11.44067 -11.44068,0 -11.44067,0 0,11.44067 0,11.44068 -11.44068,0 -11.44068,0 0,11.86441 0,11.86441 11.44068,0 11.44068,0 0,11.01695 0,11.01694 11.44067,0 11.44068,0 0,-11.01694 z"
     id="path2986"
     inkscape:connector-curvature="0" /><path
     style="fill:#ff2a2a"
     d="M 172.4706,397.19595 C 138.22458,391.84636 105.91426,378.23542 79.220912,357.91388 70.948662,351.61625 56.882105,338.26795 48.749525,328.9984 35.489307,313.88435 20.380877,287.9585 12.697702,267.13399 8.6583165,256.18563 4.8834872,241.29326 3.0966942,229.25632 1.0425512,215.41836 1.0413564,184.03766 3.0944743,170.94755 6.4029651,149.85353 12.102675,131.91792 21.538078,112.90994 32.213061,91.404789 43.025913,76.2574 59.530168,59.687998 76.179587,42.97286 91.835022,31.839911 113.40854,21.37381 142.38868,7.3144868 169.88012,1.032297 202.42486,1.032297 c 41.44566,0 88.11615,16.64774 120.93928,43.140014 8.42918,6.803378 25.25783,23.63022 32.07732,32.073877 19.38727,24.004632 34.22907,56.260362 40.06541,87.074242 2.81467,14.86053 3.305,22.1926 2.81671,42.11956 -0.50303,20.52865 -1.74135,29.46964 -6.51373,47.03102 -12.4668,45.87535 -41.96943,86.40245 -82.6386,113.51884 -24.37063,16.24925 -54.2487,27.38413 -83.72985,31.20418 -12.27109,1.59004 -42.79715,1.59115 -52.9708,0.002 l 0,2.3e-4 z m -6.43334,-118.20544 c 13.21925,-1.65756 22.7213,-4.92933 32.10308,-11.05381 16.06016,-10.48419 27.1891,-27.14422 31.38887,-46.98915 1.50703,-7.12108 2.19274,-29.59054 0.96336,-31.5678 -0.51089,-0.82168 -9.10725,-1.05932 -38.32049,-1.05932 l -37.66185,0 0,13.98305 0,13.98305 7.83899,0.003 c 4.31144,0.002 13.88078,0.2534 21.26519,0.55966 10.88496,0.45143 13.51993,0.80102 13.92131,1.84701 0.85062,2.2167 -5.07208,11.94739 -10.70328,17.58491 -9.26207,9.27247 -19.00026,12.66878 -34.42473,12.00606 -10.76312,-0.46245 -15.28133,-1.93963 -24.32792,-7.9538 -13.65898,-9.08047 -20.98418,-23.39087 -21.01466,-41.05387 -0.0144,-8.35789 1.42975,-14.04934 5.58083,-21.99409 13.49601,-25.82997 45.98975,-33.95448 69.17654,-17.29644 2.29935,1.65192 4.47893,2.88664 4.84351,2.74384 0.36458,-0.14282 5.5774,-4.96899 11.58405,-10.72482 l 10.92119,-10.46516 -3.38983,-2.90659 c -9.23152,-7.91552 -22.27174,-14.25407 -34.49817,-16.76876 -8.44898,-1.73775 -24.23146,-1.74318 -32.61645,-0.0112 -23.91116,4.93898 -44.619447,20.78713 -55.18972,42.23694 -17.383626,35.27585 -7.365391,77.15167 23.99926,100.31594 16.74017,12.36341 36.67143,17.32625 58.56092,14.58153 l 0,2.5e-4 z m 135.9306,-55.92431 0,-11.01695 11.44068,0 11.44068,0 0,-11.86441 0,-11.86441 -11.44068,0 -11.44068,0 0,-11.44068 0,-11.44067 -11.44068,0 -11.44067,0 0,11.44067 0,11.44068 -11.44068,0 -11.44068,0 0,11.86441 0,11.86441 11.44068,0 11.44068,0 0,11.01695 0,11.01694 11.44067,0 11.44068,0 0,-11.01694 z"
     id="path2988"
     inkscape:connector-curvature="0" /><path
     style="fill:#ff2a2a"
     d="m 174.84922,397.0631 c -6.59481,-0.68506 -24.70216,-4.81706 -33.36088,-7.61277 C 106.88113,378.2764 80.829057,361.8447 54.914622,334.84611 45.547187,325.08678 41.268418,319.54484 33.416743,307.00166 21.179927,287.45316 13.071866,269.33576 7.9895586,250.18484 3.1689498,232.02003 2.4710589,225.73209 2.4401167,200.18484 2.4152834,179.68129 2.6373685,175.65726 4.2875716,166.71026 7.9770282,146.70692 13.967543,128.95933 23.065082,111.07972 33.27714,91.009721 44.222611,75.921727 60.111904,60.011829 77.043099,43.058677 92.153446,32.369089 114.256,21.708411 143.75094,7.4821763 168.27048,1.8275524 200.72007,1.7683265 c 25.53311,-0.046603 47.76108,4.3508325 73.17879,14.4772145 25.46887,10.146758 44.60183,22.809291 64.8424,42.913836 18.79497,18.668672 27.53405,30.65631 38.55708,52.889873 14.85209,29.95683 20.43223,53.54515 20.43223,86.37097 0,26.30421 -1.86445,39.8892 -8.20928,59.81547 -14.80336,46.49067 -44.1543,84.2574 -86.28224,111.02194 -20.55699,13.06017 -53.68979,24.61925 -78.81974,27.49794 -7.00893,0.80288 -42.67159,1.02413 -49.57009,0.30753 z M 170.1882,278.62136 c 13.07628,-2.35727 21.69431,-5.87049 31.35593,-12.78252 12.39998,-8.87109 22.87813,-24.28272 27.06391,-39.80654 1.90742,-7.0741 3.54752,-28.72949 2.53825,-33.51462 l -0.79589,-3.77352 -37.92009,-0.22059 -37.92008,-0.22059 0,13.86488 0,13.86487 7.75731,0.55063 c 4.26652,0.30285 11.22627,0.55334 15.4661,0.55666 4.23984,0.003 10.28295,0.24913 13.42914,0.54627 6.55548,0.61913 6.98486,1.37365 3.87796,6.81452 -4.53891,7.94863 -11.65847,15.18679 -18.49661,18.80475 -6.84598,3.6221 -12.60981,4.60988 -24.43845,4.18814 -10.15786,-0.36216 -10.34439,-0.40561 -17.70193,-4.12419 -13.48613,-6.81603 -22.87863,-18.7006 -25.65832,-32.46613 -3.5172,-17.41782 1.20353,-33.30683 13.50776,-45.4643 15.98687,-15.79619 40.11557,-17.99684 58.94065,-5.37566 2.32428,1.55831 4.64306,2.83328 5.15283,2.83328 0.50977,0 6.02045,-4.87938 12.24595,-10.84307 l 11.31908,-10.84308 -6.72615,-4.91766 c -7.8697,-5.75372 -19.52826,-11.49718 -27.9126,-13.75081 -4.75737,-1.27874 -8.8693,-1.59105 -20.76272,-1.57694 -17.09253,0.0203 -21.0726,0.82354 -33.78533,6.81853 -28.388522,13.38728 -45.956981,41.03689 -45.846117,72.15358 0.117417,32.95569 19.033163,61.56781 48.936487,74.02173 13.28502,5.53285 31.42641,7.35681 46.37293,4.66238 l 0,0 z m 131.77966,-55.55516 0,-11.01695 11.44068,0 11.44068,0 0,-11.86441 0,-11.86441 -11.44068,0 -11.44068,0 0,-11.44068 0,-11.44067 -11.44068,0 -11.44067,0 0,11.44067 0,11.44068 -11.44068,0 -11.44068,0 0,11.86441 0,11.86441 11.44068,0 11.44068,0 0,11.01695 0,11.01694 11.44067,0 11.44068,0 0,-11.01694 z"
     id="path2990"
     inkscape:connector-curvature="0" /><path
     style="fill:#ff2a2a"
     d="m 174.42549,397.06816 c -7.09021,-0.89339 -24.78757,-4.9865 -32.93715,-7.61783 C 117.41997,381.67917 92.884633,368.72709 76.314435,355.04536 67.409279,347.69253 50.365338,330.63896 44.776816,323.48992 32.105204,307.27995 17.608611,280.4883 11.512013,262.0121 3.8619795,238.82811 1.4436394,220.80486 2.2066517,192.66169 2.5451659,180.17583 3.1959905,172.40167 4.4856292,165.43908 15.803427,104.33575 55.544931,51.022058 110.21251,23.605237 133.7051,11.823261 154.34378,5.4875668 178.23905,2.722343 c 11.58663,-1.3408356 36.08357,-1.1657639 46.61017,0.3331079 35.06285,4.9925617 66.99594,18.0821041 94.65901,38.8012421 8.95179,6.704722 28.54129,25.904457 36.08372,35.365761 17.40014,21.826945 33.11944,55.156586 38.60805,81.860686 3.30095,16.06034 3.76916,22.64536 3.28394,46.18645 -0.51616,25.04221 -1.83856,33.87745 -7.91009,52.84897 -11.73177,36.65793 -31.0186,66.05764 -60.11948,91.64255 -28.72425,25.2538 -66.61858,42.28019 -104.58292,46.9904 -6.60669,0.81969 -44.56291,1.05794 -50.44596,0.31665 l 0,0 z m 2.11864,-119.74152 c 27.62363,-6.85056 49.07451,-30.31366 53.44057,-58.45358 1.0856,-6.99688 1.50415,-26.89564 0.61145,-29.06958 -0.56713,-1.38111 -3.20303,-1.48305 -38.34746,-1.48305 l -37.73846,0 0,13.85427 0,13.85427 9.03014,0.55251 c 4.96658,0.30388 11.92632,0.55522 15.4661,0.55854 3.53978,0.003 9.01012,0.24913 12.15631,0.54627 6.9189,0.65345 7.18115,1.48224 2.76789,8.74726 -4.42753,7.28849 -11.70172,14.04009 -19.02785,17.66087 l -6.32163,3.12432 -13.24344,0 -13.24343,0 -7.49066,-3.71177 c -17.34749,-8.59602 -26.74928,-23.90806 -26.85723,-43.74053 -0.0739,-13.57674 4.54931,-24.52725 14.49271,-34.32736 9.78581,-9.64478 21.61861,-14.11784 35.2372,-13.32044 8.95956,0.52461 15.37877,2.58707 22.96605,7.37888 2.96023,1.86955 5.6776,3.39894 6.0386,3.39864 0.361,-3e-4 5.75591,-4.86258 11.98868,-10.80508 l 11.3323,-10.80455 -6.01207,-4.46624 c -7.35438,-5.46343 -18.74126,-11.25428 -27.24577,-13.85597 -5.60733,-1.71538 -8.15257,-1.94688 -21.61017,-1.96551 -17.72305,-0.0246 -21.24099,0.70721 -34.76179,7.2307 -23.345927,11.26389 -39.136921,31.90534 -43.99341,57.50667 -8.14263,42.92445 20.988101,85.26647 63.92469,92.91563 9.08885,1.61919 27.22797,0.95955 36.44068,-1.32517 z m 125.42373,-54.26044 0,-11.01695 11.44068,0 11.44068,0 0,-11.86441 0,-11.86441 -11.44068,0 -11.44068,0 0,-11.44068 0,-11.44067 -11.44068,0 -11.44067,0 0,11.44067 0,11.44068 -11.44068,0 -11.44068,0 0,11.86441 0,11.86441 11.44068,0 11.44068,0 0,11.01695 0,11.01694 11.44067,0 11.44068,0 0,-11.01694 z"
     id="path2992"
     inkscape:connector-curvature="0" /><path
     style="fill:#ffffff"
     d="m 146.88312,278.47919 c -26.67237,-3.25621 -49.325381,-18.65476 -61.790922,-42.00281 -8.963395,-16.78851 -11.309587,-37.4833 -6.432705,-56.7402 2.087479,-8.24264 9.056484,-21.81022 14.99394,-29.19091 9.891607,-12.29598 25.913207,-22.7429 40.941547,-26.69605 8.40444,-2.21075 23.99036,-3.03945 32.4259,-1.72407 12.14897,1.89442 24.82461,7.3775 34.51958,14.93208 l 5.42756,4.2293 -5.67805,5.78434 c -3.12292,3.18139 -7.86859,7.69811 -10.54593,10.03716 l -4.8679,4.25282 -2.66817,-2.24512 c -9.2579,-7.79001 -26.34005,-11.29806 -39.71468,-8.15596 -17.52056,4.1161 -31.90828,18.36795 -36.4431,36.09894 -6.97994,27.29127 8.82909,54.74243 35.63406,61.87584 5.95582,1.58498 18.40477,1.57231 25.18215,-0.0256 12.52305,-2.95261 23.02164,-11.28714 28.43437,-22.57325 1.6448,-3.42957 3.21868,-7.28432 3.49751,-8.5661 l 0.50695,-2.33053 -22.47377,0 -22.47377,0 0,-13.1356 0,-13.13559 36.79707,0 36.79708,0 0.61018,2.75424 c 0.99389,4.4862 0.53732,20.06235 -0.78869,26.90678 -6.83153,35.26201 -33.73837,58.23259 -69.87885,59.65611 -4.97489,0.19596 -10.38001,0.19333 -12.01136,-0.006 z"
     id="path2994"
     inkscape:connector-curvature="0" /><path
     style="fill:#ffffff"
     d="m 279.93396,222.21874 0,-11.01695 -11.44067,0 -11.44068,0 0,-11.01695 0,-11.01695 11.44068,0 11.44067,0 0,-11.44068 0,-11.44068 10.59322,0 10.59322,0 0,11.44068 0,11.44068 11.44068,0 11.44068,0 0,11.01695 0,11.01695 -11.44068,0 -11.44068,0 0,11.01695 0,11.01695 -10.59322,0 -10.59322,0 0,-11.01695 z"
     id="path2996"
     inkscape:connector-curvature="0" /></svg>