<?xml version="1.0" standalone="no"?>
<!DOCTYPE svg PUBLIC "-//W3C//DTD SVG 20010904//EN"
 "http://www.w3.org/TR/2001/REC-SVG-20010904/DTD/svg10.dtd">
<svg version="1.0" xmlns="http://www.w3.org/2000/svg"
 width="800.000000pt" height="800.000000pt" viewBox="0 0 800.000000 800.000000"
 preserveAspectRatio="xMidYMid meet">
<metadata>
Created by potrace 1.13, written by Peter Selinger 2001-2015
</metadata>
<g transform="translate(0.000000,800.000000) scale(0.100000,-0.100000)"
fill="#000000" stroke="none">
<path d="M0 7950 c0 -27 2 -50 4 -50 2 0 31 7 63 15 137 35 421 38 598 6 44
-8 70 -4 215 34 l165 44 -377 0 c-330 1 -378 -1 -378 -14 0 -8 -7 -15 -15 -15
-9 0 -18 7 -21 15 -4 9 -19 15 -40 15 -24 0 -34 -5 -34 -15 0 -8 -9 -15 -20
-15 -11 0 -20 7 -20 15 0 10 -11 15 -35 15 -24 0 -35 -5 -35 -15 0 -8 -7 -15
-15 -15 -9 0 -18 7 -21 15 -4 8 -12 15 -20 15 -10 0 -14 -14 -14 -50z"/>
<path d="M1360 7980 c-85 -20 -405 -90 -417 -91 -4 0 2 -4 14 -9 12 -5 79 -14
148 -21 122 -12 127 -12 164 9 28 16 56 22 102 22 l64 0 50 55 51 55 -50 -1
c-28 -1 -85 -9 -126 -19z"/>
<path d="M1661 7984 c-10 -12 -23 -14 -50 -9 -72 14 -78 10 -137 -71 -20 -27
-26 -29 -90 -30 -40 -1 -81 -7 -94 -15 -23 -13 -15 -14 85 -17 236 -7 543 53
704 138 l36 19 -220 0 c-187 0 -222 -2 -234 -15z"/>
<path d="M2060 7954 c-168 -77 -447 -134 -655 -134 -84 0 -289 16 -340 26 -16
3 22 -21 85 -53 63 -33 167 -92 230 -132 147 -93 242 -142 288 -148 44 -6 103
23 187 91 110 90 161 98 267 45 88 -44 116 -51 158 -38 50 16 66 34 112 121
63 121 120 147 244 108 96 -31 132 -21 189 50 22 27 59 59 82 70 42 21 45 21
107 6 71 -18 98 -15 136 14 25 19 21 20 -485 19 l-510 -1 -95 -44z"/>
<path d="M3175 7975 c-51 -42 -85 -48 -158 -30 -81 20 -100 13 -173 -64 -77
-83 -102 -89 -216 -60 l-90 23 -46 -24 c-39 -21 -53 -37 -91 -110 -38 -70 -53
-88 -86 -105 -58 -28 -100 -24 -187 18 -123 59 -146 55 -280 -49 -93 -72 -143
-90 -204 -75 -55 14 -125 50 -249 127 -226 141 -376 217 -470 237 -46 9 -70 7
-186 -17 -113 -24 -556 -130 -696 -167 l-43 -11 0 -3584 c0 -1971 3 -3584 8
-3584 4 0 47 17 97 39 190 81 468 145 779 179 129 13 253 17 626 16 494 0 644
-8 1290 -64 463 -40 485 -42 480 -36 -3 2 -57 25 -120 49 -63 25 -207 84 -320
132 -404 173 -469 193 -630 201 -94 5 -132 2 -210 -15 l-95 -20 -15 20 c-43
59 -88 103 -124 121 -126 64 -358 8 -469 -114 -37 -41 -39 -42 -53 -23 -8 10
-14 22 -14 26 0 18 -74 41 -114 35 -42 -7 -43 -6 -62 35 -36 81 -142 128 -223
99 -20 -7 -56 -29 -80 -49 -72 -58 -94 -71 -127 -71 -41 0 -77 30 -100 82 -17
39 -19 72 -19 323 0 154 -4 293 -9 308 -11 36 -54 58 -127 64 -76 7 -126 -3
-155 -32 -22 -22 -24 -32 -24 -124 0 -128 2 -131 118 -131 48 0 94 5 102 10
11 7 14 25 12 77 -2 37 -8 73 -13 79 -13 16 -91 25 -106 12 -18 -15 -17 -84 2
-92 25 -9 45 4 45 30 0 29 16 32 23 3 7 -24 -24 -59 -52 -59 -32 0 -51 28 -51
74 0 69 47 93 128 65 36 -12 52 -52 52 -131 0 -77 -18 -88 -140 -88 -87 0
-103 3 -120 20 -22 22 -22 19 -20 145 1 103 13 129 68 152 45 19 183 14 227
-7 16 -9 36 -28 44 -44 23 -49 32 -172 20 -273 -17 -137 -8 -316 19 -375 37
-85 86 -88 174 -12 66 57 103 74 166 74 68 0 129 -34 169 -93 32 -48 34 -49
87 -50 46 -2 60 -7 85 -31 l30 -29 45 41 c116 107 317 152 450 101 53 -20 116
-75 143 -123 9 -17 14 -17 102 -1 67 13 126 16 214 13 111 -4 133 -8 242 -46
66 -22 212 -80 325 -128 537 -227 573 -240 785 -259 94 -9 341 -34 550 -55
886 -93 1350 -133 1680 -146 l170 -6 88 40 c164 77 318 177 437 285 86 78 126
100 184 99 28 0 64 -5 79 -11 16 -6 51 -11 79 -11 51 0 51 0 138 89 76 78 93
90 138 101 48 11 59 10 136 -14 101 -31 137 -32 191 -6 49 24 75 57 126 161
39 80 76 117 138 138 61 20 103 13 200 -34 51 -25 94 -45 97 -45 2 0 4 1339 4
2975 l0 2975 -59 0 c-32 0 -71 5 -87 10 -56 20 -59 33 -59 280 0 200 -2 229
-19 263 -31 62 -68 60 -140 -8 -36 -33 -66 -45 -118 -45 -52 0 -111 34 -135
77 -16 30 -21 34 -49 28 -23 -4 -40 1 -68 20 l-38 26 -36 -32 c-54 -48 -135
-81 -211 -87 -97 -6 -147 10 -203 69 l-48 49 -96 -15 c-106 -16 -207 -8 -299
21 -45 15 -325 129 -448 183 l-49 21 -1316 0 -1317 0 -30 -25z m-635 -3170 l0
-415 230 0 230 0 0 -60 0 -60 -295 0 -295 0 0 475 0 475 65 0 65 0 0 -415z
m3813 -62 l2 -473 -67 0 -68 0 0 468 c0 258 3 472 7 476 4 4 34 6 66 4 l58 -3
2 -472z m-2806 199 c23 -12 50 -34 61 -49 39 -56 44 -94 44 -361 l1 -257 -62
-3 -61 -3 0 30 0 30 -47 -27 c-114 -67 -248 -69 -345 -4 -52 34 -78 86 -78
157 0 149 110 222 349 232 l123 6 -6 53 c-8 69 -13 79 -44 101 -21 14 -46 18
-112 18 -72 0 -90 -3 -117 -23 -17 -12 -37 -38 -43 -57 -11 -35 -12 -35 -71
-35 l-59 0 0 33 c2 74 69 149 157 173 76 22 257 13 310 -14z m613 -38 l0 -67
-41 7 c-58 9 -113 -9 -159 -53 l-41 -39 1 -218 c0 -121 1 -229 0 -241 0 -21
-4 -23 -65 -23 l-64 0 2 343 2 342 65 0 65 0 0 -37 c0 -21 0 -38 1 -38 1 0 16
14 33 31 44 41 86 58 149 59 l52 0 0 -66z m487 38 c46 -24 74 -59 92 -112 6
-21 12 -137 13 -298 l3 -262 -62 0 -63 0 0 30 0 30 -37 -24 c-72 -48 -195 -67
-278 -45 -99 27 -155 97 -155 194 0 149 109 222 349 232 l123 6 -6 53 c-8 69
-13 79 -44 101 -21 14 -46 18 -112 18 -101 0 -134 -16 -158 -76 l-15 -39 -59
0 -58 0 0 30 c0 74 70 152 158 177 75 21 256 12 309 -15z m1279 9 c121 -43
187 -141 201 -298 l6 -73 -257 0 -256 0 0 -23 c0 -39 29 -111 56 -140 73 -79
209 -84 274 -11 16 19 30 44 30 54 0 18 7 20 70 20 l70 0 -6 -27 c-19 -80 -71
-139 -154 -177 -35 -16 -66 -21 -140 -21 -88 0 -101 3 -160 33 -120 60 -173
157 -174 317 -1 185 68 299 211 351 56 20 164 17 229 -5z m-877 -253 c47 -141
88 -255 90 -252 3 3 44 118 91 257 l87 252 66 3 c42 2 67 -1 67 -8 0 -5 -56
-159 -125 -341 -69 -182 -125 -333 -125 -336 0 -2 -27 -3 -61 -1 l-61 3 -45
120 c-25 66 -81 213 -124 328 -44 114 -79 214 -79 223 0 12 12 14 66 12 l67
-3 86 -257z m-3472 -136 c10 -6 303 -489 628 -1037 65 -110 120 -201 121 -203
2 -4 142 28 534 123 168 40 319 76 337 80 l32 6 -77 107 c-139 196 -232 332
-232 341 0 22 43 34 270 72 l242 41 35 -34 c34 -32 341 -410 365 -448 9 -14 9
-23 2 -30 -6 -6 -102 -35 -214 -65 -111 -30 -205 -57 -208 -59 -2 -3 47 -74
110 -158 231 -308 258 -347 258 -366 0 -24 -15 -30 -485 -199 -634 -228 -622
-224 -672 -172 -17 16 -104 161 -194 320 -144 257 -165 290 -183 285 -12 -4
-161 -42 -332 -86 -266 -68 -315 -78 -346 -70 -19 6 -42 18 -51 28 -9 10 -61
115 -116 233 -216 470 -293 636 -316 684 -226 486 -243 528 -211 554 11 9 89
20 234 32 119 10 237 20 262 22 86 7 195 7 207 -1z m3435 -561 c83 -26 128
-90 128 -183 0 -74 -30 -132 -88 -166 -44 -25 -56 -27 -184 -30 l-138 -4 0
-129 0 -129 -45 0 -45 0 0 331 0 332 168 -6 c92 -3 184 -10 204 -16z m461
-160 c88 -21 149 -98 163 -208 l7 -53 -144 -1 c-79 0 -161 -1 -181 -1 -44 -1
-47 -12 -19 -73 26 -57 53 -77 109 -83 61 -5 109 17 124 58 9 27 14 29 55 28
43 -1 44 -2 38 -27 -30 -120 -208 -172 -331 -96 -62 39 -97 103 -102 191 -12
182 116 303 281 265z m475 -38 l3 -43 -44 0 c-42 0 -87 -23 -109 -55 -4 -5 -8
-85 -8 -177 l0 -168 -45 0 -45 0 0 240 0 240 45 0 c43 0 45 -1 45 -30 l0 -29
28 26 c35 32 60 43 97 40 28 -2 30 -5 33 -44z m132 -154 c5 -203 9 -214 64
-224 39 -8 82 8 119 43 l27 26 0 173 0 174 43 -3 42 -3 3 -237 2 -238 -45 0
c-42 0 -45 2 -45 27 0 24 -1 25 -17 11 -50 -44 -137 -61 -195 -39 -34 13 -66
44 -78 75 -5 15 -10 110 -10 217 l0 190 43 -3 42 -3 5 -186z"/>
<path d="M3370 4590 c-120 -12 -180 -55 -180 -132 0 -126 206 -141 324 -22 12
11 16 35 16 90 l0 74 -42 -1 c-24 -1 -77 -5 -118 -9z"/>
<path d="M4442 4589 c-65 -11 -104 -30 -131 -65 -23 -29 -28 -83 -11 -115 17
-31 70 -52 130 -52 66 0 123 23 168 65 30 30 32 36 32 105 l0 73 -67 -1 c-38
-1 -92 -5 -121 -10z"/>
<path d="M5735 4856 c-36 -16 -82 -67 -102 -113 -27 -65 -32 -63 172 -63 208
0 202 -3 166 75 -45 97 -146 140 -236 101z"/>
<path d="M1206 4459 c-109 -10 -201 -20 -203 -22 -2 -2 48 -109 111 -238 213
-438 419 -864 463 -957 l44 -93 32 6 c18 4 111 26 207 50 96 24 210 51 253 60
42 9 79 21 82 25 3 5 -14 41 -38 82 -24 40 -55 93 -69 118 -27 47 -210 363
-367 635 -51 88 -118 204 -149 258 l-56 97 -56 -1 c-30 -1 -145 -10 -254 -20z"/>
<path d="M3300 3980 c-52 -10 -128 -23 -167 -30 -40 -6 -73 -15 -73 -19 0 -5
29 -48 65 -97 36 -49 95 -131 132 -181 36 -51 70 -93 75 -93 23 0 344 82 352
90 5 5 -5 27 -25 53 -169 221 -232 297 -247 296 -9 -1 -60 -9 -112 -19z"/>
<path d="M3220 3420 c-117 -32 -653 -172 -734 -191 -44 -11 -82 -22 -84 -24
-5 -4 222 -401 270 -472 16 -24 36 -43 44 -43 16 0 46 10 558 184 186 63 341
118 344 120 7 8 -314 447 -326 445 -4 0 -36 -9 -72 -19z"/>
<path d="M4730 3819 l0 -119 110 0 c73 0 122 5 145 14 82 34 87 168 8 206 -17
8 -73 14 -145 16 l-118 3 0 -120z"/>
<path d="M5360 3763 c-34 -18 -65 -60 -72 -98 -3 -19 2 -20 122 -17 69 2 127
6 129 8 2 2 -2 20 -10 40 -27 70 -104 101 -169 67z"/>
<path d="M6050 7929 c224 -95 314 -126 407 -139 76 -10 97 -9 253 15 32 5 37
2 62 -34 36 -53 93 -81 166 -82 100 -2 190 32 258 96 l39 37 24 -29 c21 -24
31 -28 72 -27 44 2 48 0 60 -27 24 -59 100 -95 163 -78 19 5 54 25 77 45 82
68 112 69 156 2 l28 -42 0 -232 c0 -278 -5 -267 110 -272 l75 -4 -1 68 c-1 52
-3 60 -8 34 -6 -34 -7 -35 -57 -38 -64 -4 -72 6 -76 86 -3 74 0 77 83 86 l59
7 0 299 0 300 -1057 0 -1058 -1 165 -70z"/>
<path d="M165 7915 c-44 -7 -99 -18 -122 -24 l-43 -12 0 -90 c0 -75 3 -90 14
-86 8 3 122 38 253 77 131 39 267 80 302 90 35 11 71 20 80 20 9 0 11 3 5 9
-12 11 -230 31 -331 30 -43 -1 -114 -7 -158 -14z"/>
<path d="M7708 1245 c-67 -25 -86 -45 -131 -138 -81 -170 -158 -209 -317 -161
-61 19 -99 25 -135 21 -47 -4 -54 -9 -120 -80 -110 -118 -144 -132 -255 -102
-109 29 -123 23 -296 -123 -98 -83 -202 -151 -335 -217 -38 -20 -69 -38 -69
-41 0 -5 220 0 460 12 253 12 892 74 970 94 19 5 121 63 226 127 104 65 214
129 242 142 l52 24 0 176 0 176 -92 47 c-106 54 -148 63 -200 43z"/>
<path d="M7935 749 c-69 -35 -375 -222 -371 -226 2 -2 89 10 195 27 106 16
203 30 217 30 24 0 24 1 24 100 0 55 -1 100 -2 100 -2 0 -30 -14 -63 -31z"/>
<path d="M1140 699 c-457 -20 -801 -88 -1082 -213 l-58 -26 0 -230 0 -230 509
0 508 0 234 114 c647 315 721 319 1108 62 295 -197 363 -201 627 -32 187 120
265 143 387 111 125 -32 180 -75 248 -195 l34 -59 2173 -1 2172 0 0 256 0 257
-37 -7 c-21 -3 -52 -6 -70 -6 -25 0 -42 -11 -83 -54 -60 -62 -104 -78 -202
-69 -55 5 -59 4 -103 -35 -64 -56 -97 -60 -205 -22 -83 28 -104 31 -322 42
-277 15 -330 15 -733 4 -290 -8 -315 -10 -385 -33 -120 -39 -296 -81 -425
-100 -147 -21 -515 -24 -680 -4 -264 31 -567 104 -831 200 -144 52 -155 55
-554 107 -63 8 -180 24 -260 35 -439 61 -1025 114 -1425 129 -291 11 -298 11
-545 -1z"/>
<path d="M7700 475 c-52 -8 -135 -17 -185 -20 -66 -6 -113 -16 -177 -41 -48
-19 -94 -34 -103 -34 -37 0 -8 -17 74 -43 104 -33 124 -30 189 25 45 40 47 40
111 36 90 -6 151 12 185 57 16 21 22 35 14 34 -7 -1 -56 -7 -108 -14z"/>
<path d="M3965 440 c75 -31 308 -97 457 -130 222 -48 331 -61 569 -67 306 -8
496 10 706 68 43 11 88 23 101 26 58 13 2 18 -241 21 -486 5 -864 26 -1309 73
-106 11 -224 22 -263 25 l-70 5 50 -21z"/>
<path d="M1774 295 c-102 -30 -283 -109 -489 -213 l-160 -81 725 0 725 0 -50
23 c-27 12 -111 63 -185 113 -275 184 -380 213 -566 158z"/>
<path d="M3223 220 c-52 -11 -109 -40 -198 -100 -38 -27 -99 -64 -135 -84
l-65 -36 392 0 392 0 -27 47 c-15 27 -45 66 -67 88 -65 66 -198 104 -292 85z"/>
</g>
</svg>
